<?xml version="1.0" encoding="UTF-8"?>
<!DOCTYPE svg PUBLIC "-//W3C//DTD SVG 1.1//EN" "http://www.w3.org/Graphics/SVG/1.1/DTD/svg11.dtd">
<svg xmlns="http://www.w3.org/2000/svg" version="1.1" width="1050px" height="415px" style="shape-rendering:geometricPrecision; text-rendering:geometricPrecision; image-rendering:optimizeQuality; fill-rule:evenodd; clip-rule:evenodd" xmlns:xlink="http://www.w3.org/1999/xlink">
<g><path style="opacity:0.961" fill="#144479" d="M 212.5,21.5 C 213.552,21.3505 214.552,21.5172 215.5,22C 241.333,47.8333 267.167,73.6667 293,99.5C 293.667,100.5 293.667,101.5 293,102.5C 283.637,112.197 273.97,121.53 264,130.5C 247.333,113.833 230.667,97.1667 214,80.5C 161.5,133 109,185.5 56.5,238C 55.8333,238.667 55.1667,238.667 54.5,238C 44.8333,228.333 35.1667,218.667 25.5,209C 88.0347,146.632 150.368,84.1321 212.5,21.5 Z"/></g>
<g><path style="opacity:0.97" fill="#ac2828" d="M 891.5,31.5 C 914.36,29.7416 936.36,33.2416 957.5,42C 963.914,44.6197 969.747,48.1197 975,52.5C 975.667,63.1667 975.667,73.8333 975,84.5C 943.532,56.2739 908.032,49.7739 868.5,65C 851.374,74.8068 840.207,89.3068 835,108.5C 828.197,136.466 829.197,164.133 838,191.5C 851.657,220.435 874.657,234.769 907,234.5C 932.932,233.279 955.432,223.946 974.5,206.5C 975.666,217.151 975.832,227.818 975,238.5C 938.233,261.027 899.4,265.194 858.5,251C 825.04,234.964 805.54,208.464 800,171.5C 798.018,153.836 798.018,136.169 800,118.5C 809.675,67.3197 840.175,38.3197 891.5,31.5 Z"/></g>
<g><path style="opacity:0.989" fill="#ab2828" d="M 449.5,35.5 C 459.833,35.5 470.167,35.5 480.5,35.5C 480.5,100.167 480.5,164.833 480.5,229.5C 516.167,229.5 551.833,229.5 587.5,229.5C 587.5,237.833 587.5,246.167 587.5,254.5C 541.5,254.5 495.5,254.5 449.5,254.5C 449.5,181.5 449.5,108.5 449.5,35.5 Z"/></g>
<g><path style="opacity:0.98" fill="#ac2828" d="M 617.5,35.5 C 644.502,35.3334 671.502,35.5 698.5,36C 744.802,40.7282 764.635,66.2282 758,112.5C 753.868,132.63 742.034,145.797 722.5,152C 727.302,153.901 731.636,156.568 735.5,160C 740.027,164.892 744.193,170.059 748,175.5C 761.883,201.431 775.383,227.598 788.5,254C 777.257,254.82 766.09,254.653 755,253.5C 744.333,232.167 733.667,210.833 723,189.5C 718.114,181.227 711.948,174.061 704.5,168C 699.069,165.523 693.403,163.856 687.5,163C 674.171,162.5 660.837,162.333 647.5,162.5C 647.5,193.167 647.5,223.833 647.5,254.5C 637.5,254.5 627.5,254.5 617.5,254.5C 617.5,181.5 617.5,108.5 617.5,35.5 Z M 647.5,60.5 C 663.17,60.3334 678.837,60.5001 694.5,61C 720.648,66.7603 731.148,82.927 726,109.5C 720.598,127.468 708.432,136.635 689.5,137C 675.504,137.5 661.504,137.667 647.5,137.5C 647.5,111.833 647.5,86.1667 647.5,60.5 Z"/></g>
<g><path style="opacity:0.942" fill="#ab2928" d="M 211.5,122.5 C 222.08,131.576 232.246,141.242 242,151.5C 242.667,152.167 242.667,152.833 242,153.5C 197.167,198.333 152.333,243.167 107.5,288C 106.5,288.667 105.5,288.667 104.5,288C 94.8333,278.333 85.1667,268.667 75.5,259C 121.035,213.632 166.368,168.132 211.5,122.5 Z"/></g>
<g><path style="opacity:0.958" fill="#ab2928" d="M 317.5,125.5 C 328.246,134.743 338.58,144.576 348.5,155C 303.167,200.333 257.833,245.667 212.5,291C 211.833,291.667 211.167,291.667 210.5,291C 200.833,281.333 191.167,271.667 181.5,262C 227.035,216.632 272.368,171.132 317.5,125.5 Z"/></g>
<g><path style="opacity:0.956" fill="#144479" d="M 367.5,175.5 C 378.58,185.076 389.247,195.243 399.5,206C 336.645,268.855 273.812,331.688 211,394.5C 184.355,367.855 157.688,341.188 131,314.5C 130.333,313.833 130.333,313.167 131,312.5C 140.375,302.79 150.042,293.457 160,284.5C 176.959,300.459 193.626,316.792 210,333.5C 262.701,280.965 315.201,228.299 367.5,175.5 Z"/></g>
<g><path style="opacity:0.949" fill="#ac2828" d="M 923.5,261.5 C 938.785,260.47 953.619,262.47 968,267.5C 968.829,272.864 968.663,278.198 967.5,283.5C 957.095,278.751 946.262,275.751 935,274.5C 926.125,274.466 918.458,277.466 912,283.5C 906.717,292.752 908.217,300.585 916.5,307C 929.853,310.538 943.187,314.205 956.5,318C 968.617,324.212 974.95,334.212 975.5,348C 974.625,367.878 964.291,379.212 944.5,382C 926.715,384.697 909.549,382.531 893,375.5C 892.17,369.804 892.337,364.137 893.5,358.5C 907.019,366.903 921.686,370.403 937.5,369C 953.729,366.458 959.895,357.292 956,341.5C 952.342,335.083 946.842,331.249 939.5,330C 925.362,328.843 912.362,324.509 900.5,317C 892.924,308.207 890.424,298.041 893,286.5C 894.944,279.45 898.778,273.617 904.5,269C 910.57,265.593 916.904,263.093 923.5,261.5 Z"/></g>
<g><path style="opacity:0.957" fill="#ac2828" d="M 467.5,287.5 C 467.5,286.833 467.167,286.5 466.5,286.5C 466.167,285.167 465.833,285.167 465.5,286.5C 465.5,317.833 465.5,349.167 465.5,380.5C 460.167,380.5 454.833,380.5 449.5,380.5C 449.5,341.5 449.5,302.5 449.5,263.5C 457.196,263.169 464.862,263.503 472.5,264.5C 489.255,295.675 505.755,327.009 522,358.5C 522.5,326.835 522.667,295.168 522.5,263.5C 527.833,263.5 533.167,263.5 538.5,263.5C 538.5,302.5 538.5,341.5 538.5,380.5C 530.913,380.814 523.413,380.481 516,379.5C 499.566,348.965 483.399,318.298 467.5,287.5 Z"/></g>
<g><path style="opacity:0.946" fill="#ab2828" d="M 569.5,263.5 C 594.5,263.5 619.5,263.5 644.5,263.5C 644.5,268.167 644.5,272.833 644.5,277.5C 625.167,277.5 605.833,277.5 586.5,277.5C 586.5,288.833 586.5,300.167 586.5,311.5C 604.833,311.5 623.167,311.5 641.5,311.5C 641.5,316.167 641.5,320.833 641.5,325.5C 623.167,325.5 604.833,325.5 586.5,325.5C 586.5,339.167 586.5,352.833 586.5,366.5C 606.167,366.5 625.833,366.5 645.5,366.5C 645.5,371.167 645.5,375.833 645.5,380.5C 620.167,380.5 594.833,380.5 569.5,380.5C 569.5,341.5 569.5,302.5 569.5,263.5 Z"/></g>
<g><path style="opacity:0.958" fill="#ac2828" d="M 665.5,263.5 C 671.537,263.171 677.537,263.504 683.5,264.5C 692.599,278.377 701.932,292.044 711.5,305.5C 721.029,291.803 730.362,277.97 739.5,264C 745.528,263.17 751.528,263.336 757.5,264.5C 745.291,283.086 732.957,301.586 720.5,320C 733.833,340 747.167,360 760.5,380C 754.141,380.831 747.807,380.664 741.5,379.5C 731,363.833 720.5,348.167 710,332.5C 699.5,348.167 689,363.833 678.5,379.5C 672.193,380.664 665.859,380.831 659.5,380C 673.575,359.594 687.241,338.928 700.5,318C 688.444,300.048 676.778,281.881 665.5,263.5 Z"/></g>
<g><path style="opacity:0.939" fill="#ac2828" d="M 778.5,263.5 C 784.167,263.5 789.833,263.5 795.5,263.5C 795.041,292.542 795.541,321.542 797,350.5C 800.532,364.031 809.365,370.365 823.5,369.5C 837.331,369.857 846.164,363.524 850,350.5C 851.459,321.542 851.959,292.542 851.5,263.5C 857.167,263.5 862.833,263.5 868.5,263.5C 868.667,291.169 868.5,318.835 868,346.5C 863.917,371.903 848.917,384.237 823,383.5C 798.036,383.855 783.369,371.855 779,347.5C 778.5,319.502 778.333,291.502 778.5,263.5 Z"/></g>
<g><path style="opacity:0.012" fill="#aa0000" d="M 465.5,286.5 C 465.833,286.5 466.167,286.5 466.5,286.5C 467.167,286.5 467.5,286.833 467.5,287.5C 466.833,318.5 466.167,349.5 465.5,380.5C 465.5,349.167 465.5,317.833 465.5,286.5 Z"/></g>
</svg>
